<?xml version="1.0" encoding="utf-8" standalone="no"?>
<!DOCTYPE svg PUBLIC "-//W3C//DTD SVG 1.1//EN"
  "http://www.w3.org/Graphics/SVG/1.1/DTD/svg11.dtd">
<svg xmlns:xlink="http://www.w3.org/1999/xlink" width="641.99952pt" height="233.65376pt" viewBox="0 0 641.99952 233.65376" xmlns="http://www.w3.org/2000/svg" version="1.1">
 <metadata>
  <rdf:RDF xmlns:dc="http://purl.org/dc/elements/1.1/" xmlns:cc="http://creativecommons.org/ns#" xmlns:rdf="http://www.w3.org/1999/02/22-rdf-syntax-ns#">
   <cc:Work>
    <dc:type rdf:resource="http://purl.org/dc/dcmitype/StillImage"/>
    <dc:date>2026-06-04T09:46:41.109003</dc:date>
    <dc:format>image/svg+xml</dc:format>
    <dc:creator>
     <cc:Agent>
      <dc:title>Matplotlib v3.10.0, https://matplotlib.org/</dc:title>
     </cc:Agent>
    </dc:creator>
   </cc:Work>
  </rdf:RDF>
 </metadata>
 <defs>
  <style type="text/css">*{stroke-linejoin: round; stroke-linecap: butt}</style>
 </defs>
 <g id="figure_1">
  <g id="patch_1">
   <path d="M 0 233.65376
L 641.99952 233.65376
L 641.99952 0
L 0 0
z
" style="fill: #ffffff"/>
  </g>
  <g id="axes_1">
   <g id="patch_2">
    <path d="M 50.14375 194.922073
L 217.134937 194.922073
L 217.134937 38.772365
L 50.14375 38.772365
z
" style="fill: #ffffff"/>
   </g>
   <g id="matplotlib.axis_1">
    <g id="xtick_1">
     <g id="line2d_1">
      <defs>
       <path id="ma5465170c4" d="M 0 0
L 0 3.5
" style="stroke: #000000; stroke-width: 0.8"/>
      </defs>
      <g>
       <use xlink:href="#ma5465170c4" x="77.826781" y="194.922073" style="stroke: #000000; stroke-width: 0.8"/>
      </g>
     </g>
     <g id="text_1">
      <!-- ellipsoid -->
      <g transform="translate(37.914404 221.908122) rotate(-18) scale(0.1 -0.1)">
       <defs>
        <path id="DejaVuSans-65" d="M 3597 1894
L 3597 1613
L 953 1613
Q 991 1019 1311 708
Q 1631 397 2203 397
Q 2534 397 2845 478
Q 3156 559 3463 722
L 3463 178
Q 3153 47 2828 -22
Q 2503 -91 2169 -91
Q 1331 -91 842 396
Q 353 884 353 1716
Q 353 2575 817 3079
Q 1281 3584 2069 3584
Q 2775 3584 3186 3129
Q 3597 2675 3597 1894
z
M 3022 2063
Q 3016 2534 2758 2815
Q 2500 3097 2075 3097
Q 1594 3097 1305 2825
Q 1016 2553 972 2059
L 3022 2063
z
" transform="scale(0.015625)"/>
        <path id="DejaVuSans-6c" d="M 603 4863
L 1178 4863
L 1178 0
L 603 0
L 603 4863
z
" transform="scale(0.015625)"/>
        <path id="DejaVuSans-69" d="M 603 3500
L 1178 3500
L 1178 0
L 603 0
L 603 3500
z
M 603 4863
L 1178 4863
L 1178 4134
L 603 4134
L 603 4863
z
" transform="scale(0.015625)"/>
        <path id="DejaVuSans-70" d="M 1159 525
L 1159 -1331
L 581 -1331
L 581 3500
L 1159 3500
L 1159 2969
Q 1341 3281 1617 3432
Q 1894 3584 2278 3584
Q 2916 3584 3314 3078
Q 3713 2572 3713 1747
Q 3713 922 3314 415
Q 2916 -91 2278 -91
Q 1894 -91 1617 61
Q 1341 213 1159 525
z
M 3116 1747
Q 3116 2381 2855 2742
Q 2594 3103 2138 3103
Q 1681 3103 1420 2742
Q 1159 2381 1159 1747
Q 1159 1113 1420 752
Q 1681 391 2138 391
Q 2594 391 2855 752
Q 3116 1113 3116 1747
z
" transform="scale(0.015625)"/>
        <path id="DejaVuSans-73" d="M 2834 3397
L 2834 2853
Q 2591 2978 2328 3040
Q 2066 3103 1784 3103
Q 1356 3103 1142 2972
Q 928 2841 928 2578
Q 928 2378 1081 2264
Q 1234 2150 1697 2047
L 1894 2003
Q 2506 1872 2764 1633
Q 3022 1394 3022 966
Q 3022 478 2636 193
Q 2250 -91 1575 -91
Q 1294 -91 989 -36
Q 684 19 347 128
L 347 722
Q 666 556 975 473
Q 1284 391 1588 391
Q 1994 391 2212 530
Q 2431 669 2431 922
Q 2431 1156 2273 1281
Q 2116 1406 1581 1522
L 1381 1569
Q 847 1681 609 1914
Q 372 2147 372 2553
Q 372 3047 722 3315
Q 1072 3584 1716 3584
Q 2034 3584 2315 3537
Q 2597 3491 2834 3397
z
" transform="scale(0.015625)"/>
        <path id="DejaVuSans-6f" d="M 1959 3097
Q 1497 3097 1228 2736
Q 959 2375 959 1747
Q 959 1119 1226 758
Q 1494 397 1959 397
Q 2419 397 2687 759
Q 2956 1122 2956 1747
Q 2956 2369 2687 2733
Q 2419 3097 1959 3097
z
M 1959 3584
Q 2709 3584 3137 3096
Q 3566 2609 3566 1747
Q 3566 888 3137 398
Q 2709 -91 1959 -91
Q 1206 -91 779 398
Q 353 888 353 1747
Q 353 2609 779 3096
Q 1206 3584 1959 3584
z
" transform="scale(0.015625)"/>
        <path id="DejaVuSans-64" d="M 2906 2969
L 2906 4863
L 3481 4863
L 3481 0
L 2906 0
L 2906 525
Q 2725 213 2448 61
Q 2172 -91 1784 -91
Q 1150 -91 751 415
Q 353 922 353 1747
Q 353 2572 751 3078
Q 1150 3584 1784 3584
Q 2172 3584 2448 3432
Q 2725 3281 2906 2969
z
M 947 1747
Q 947 1113 1208 752
Q 1469 391 1925 391
Q 2381 391 2643 752
Q 2906 1113 2906 1747
Q 2906 2381 2643 2742
Q 2381 3103 1925 3103
Q 1469 3103 1208 2742
Q 947 2381 947 1747
z
" transform="scale(0.015625)"/>
       </defs>
       <use xlink:href="#DejaVuSans-65"/>
       <use xlink:href="#DejaVuSans-6c" transform="translate(61.523438 0)"/>
       <use xlink:href="#DejaVuSans-6c" transform="translate(89.306641 0)"/>
       <use xlink:href="#DejaVuSans-69" transform="translate(117.089844 0)"/>
       <use xlink:href="#DejaVuSans-70" transform="translate(144.873047 0)"/>
       <use xlink:href="#DejaVuSans-73" transform="translate(208.349609 0)"/>
       <use xlink:href="#DejaVuSans-6f" transform="translate(260.449219 0)"/>
       <use xlink:href="#DejaVuSans-69" transform="translate(321.630859 0)"/>
       <use xlink:href="#DejaVuSans-64" transform="translate(349.414062 0)"/>
      </g>
     </g>
    </g>
    <g id="xtick_2">
     <g id="line2d_2">
      <g>
       <use xlink:href="#ma5465170c4" x="133.639343" y="194.922073" style="stroke: #000000; stroke-width: 0.8"/>
      </g>
     </g>
     <g id="text_2">
      <!-- hex prism -->
      <g transform="translate(85.824281 224.47586) rotate(-18) scale(0.1 -0.1)">
       <defs>
        <path id="DejaVuSans-68" d="M 3513 2113
L 3513 0
L 2938 0
L 2938 2094
Q 2938 2591 2744 2837
Q 2550 3084 2163 3084
Q 1697 3084 1428 2787
Q 1159 2491 1159 1978
L 1159 0
L 581 0
L 581 4863
L 1159 4863
L 1159 2956
Q 1366 3272 1645 3428
Q 1925 3584 2291 3584
Q 2894 3584 3203 3211
Q 3513 2838 3513 2113
z
" transform="scale(0.015625)"/>
        <path id="DejaVuSans-78" d="M 3513 3500
L 2247 1797
L 3578 0
L 2900 0
L 1881 1375
L 863 0
L 184 0
L 1544 1831
L 300 3500
L 978 3500
L 1906 2253
L 2834 3500
L 3513 3500
z
" transform="scale(0.015625)"/>
        <path id="DejaVuSans-20" transform="scale(0.015625)"/>
        <path id="DejaVuSans-72" d="M 2631 2963
Q 2534 3019 2420 3045
Q 2306 3072 2169 3072
Q 1681 3072 1420 2755
Q 1159 2438 1159 1844
L 1159 0
L 581 0
L 581 3500
L 1159 3500
L 1159 2956
Q 1341 3275 1631 3429
Q 1922 3584 2338 3584
Q 2397 3584 2469 3576
Q 2541 3569 2628 3553
L 2631 2963
z
" transform="scale(0.015625)"/>
        <path id="DejaVuSans-6d" d="M 3328 2828
Q 3544 3216 3844 3400
Q 4144 3584 4550 3584
Q 5097 3584 5394 3201
Q 5691 2819 5691 2113
L 5691 0
L 5113 0
L 5113 2094
Q 5113 2597 4934 2840
Q 4756 3084 4391 3084
Q 3944 3084 3684 2787
Q 3425 2491 3425 1978
L 3425 0
L 2847 0
L 2847 2094
Q 2847 2600 2669 2842
Q 2491 3084 2119 3084
Q 1678 3084 1418 2786
Q 1159 2488 1159 1978
L 1159 0
L 581 0
L 581 3500
L 1159 3500
L 1159 2956
Q 1356 3278 1631 3431
Q 1906 3584 2284 3584
Q 2666 3584 2933 3390
Q 3200 3197 3328 2828
z
" transform="scale(0.015625)"/>
       </defs>
       <use xlink:href="#DejaVuSans-68"/>
       <use xlink:href="#DejaVuSans-65" transform="translate(63.378906 0)"/>
       <use xlink:href="#DejaVuSans-78" transform="translate(123.152344 0)"/>
       <use xlink:href="#DejaVuSans-20" transform="translate(182.332031 0)"/>
       <use xlink:href="#DejaVuSans-70" transform="translate(214.119141 0)"/>
       <use xlink:href="#DejaVuSans-72" transform="translate(277.595703 0)"/>
       <use xlink:href="#DejaVuSans-69" transform="translate(318.708984 0)"/>
       <use xlink:href="#DejaVuSans-73" transform="translate(346.492188 0)"/>
       <use xlink:href="#DejaVuSans-6d" transform="translate(398.591797 0)"/>
      </g>
     </g>
    </g>
    <g id="xtick_3">
     <g id="line2d_3">
      <g>
       <use xlink:href="#ma5465170c4" x="189.451906" y="194.922073" style="stroke: #000000; stroke-width: 0.8"/>
      </g>
     </g>
     <g id="text_3">
      <!-- cone -->
      <g transform="translate(165.881355 216.59834) rotate(-18) scale(0.1 -0.1)">
       <defs>
        <path id="DejaVuSans-63" d="M 3122 3366
L 3122 2828
Q 2878 2963 2633 3030
Q 2388 3097 2138 3097
Q 1578 3097 1268 2742
Q 959 2388 959 1747
Q 959 1106 1268 751
Q 1578 397 2138 397
Q 2388 397 2633 464
Q 2878 531 3122 666
L 3122 134
Q 2881 22 2623 -34
Q 2366 -91 2075 -91
Q 1284 -91 818 406
Q 353 903 353 1747
Q 353 2603 823 3093
Q 1294 3584 2113 3584
Q 2378 3584 2631 3529
Q 2884 3475 3122 3366
z
" transform="scale(0.015625)"/>
        <path id="DejaVuSans-6e" d="M 3513 2113
L 3513 0
L 2938 0
L 2938 2094
Q 2938 2591 2744 2837
Q 2550 3084 2163 3084
Q 1697 3084 1428 2787
Q 1159 2491 1159 1978
L 1159 0
L 581 0
L 581 3500
L 1159 3500
L 1159 2956
Q 1366 3272 1645 3428
Q 1925 3584 2291 3584
Q 2894 3584 3203 3211
Q 3513 2838 3513 2113
z
" transform="scale(0.015625)"/>
       </defs>
       <use xlink:href="#DejaVuSans-63"/>
       <use xlink:href="#DejaVuSans-6f" transform="translate(54.980469 0)"/>
       <use xlink:href="#DejaVuSans-6e" transform="translate(116.162109 0)"/>
       <use xlink:href="#DejaVuSans-65" transform="translate(179.541016 0)"/>
      </g>
     </g>
    </g>
   </g>
   <g id="matplotlib.axis_2">
    <g id="ytick_1">
     <g id="line2d_4">
      <path d="M 50.14375 194.922073
L 217.134937 194.922073
" clip-path="url(#pba08508372)" style="fill: none; stroke: #dddddd; stroke-width: 0.6; stroke-linecap: square"/>
     </g>
     <g id="line2d_5">
      <defs>
       <path id="ma9e37f7498" d="M 0 0
L -3.5 0
" style="stroke: #000000; stroke-width: 0.8"/>
      </defs>
      <g>
       <use xlink:href="#ma9e37f7498" x="50.14375" y="194.922073" style="stroke: #000000; stroke-width: 0.8"/>
      </g>
     </g>
     <g id="text_4">
      <!-- 0.00 -->
      <g transform="translate(20.878125 198.721292) scale(0.1 -0.1)">
       <defs>
        <path id="DejaVuSans-30" d="M 2034 4250
Q 1547 4250 1301 3770
Q 1056 3291 1056 2328
Q 1056 1369 1301 889
Q 1547 409 2034 409
Q 2525 409 2770 889
Q 3016 1369 3016 2328
Q 3016 3291 2770 3770
Q 2525 4250 2034 4250
z
M 2034 4750
Q 2819 4750 3233 4129
Q 3647 3509 3647 2328
Q 3647 1150 3233 529
Q 2819 -91 2034 -91
Q 1250 -91 836 529
Q 422 1150 422 2328
Q 422 3509 836 4129
Q 1250 4750 2034 4750
z
" transform="scale(0.015625)"/>
        <path id="DejaVuSans-2e" d="M 684 794
L 1344 794
L 1344 0
L 684 0
L 684 794
z
" transform="scale(0.015625)"/>
       </defs>
       <use xlink:href="#DejaVuSans-30"/>
       <use xlink:href="#DejaVuSans-2e" transform="translate(63.623047 0)"/>
       <use xlink:href="#DejaVuSans-30" transform="translate(95.410156 0)"/>
       <use xlink:href="#DejaVuSans-30" transform="translate(159.033203 0)"/>
      </g>
     </g>
    </g>
    <g id="ytick_2">
     <g id="line2d_6">
      <path d="M 50.14375 163.761248
L 217.134937 163.761248
" clip-path="url(#pba08508372)" style="fill: none; stroke: #dddddd; stroke-width: 0.6; stroke-linecap: square"/>
     </g>
     <g id="line2d_7">
      <g>
       <use xlink:href="#ma9e37f7498" x="50.14375" y="163.761248" style="stroke: #000000; stroke-width: 0.8"/>
      </g>
     </g>
     <g id="text_5">
      <!-- 0.01 -->
      <g transform="translate(20.878125 167.560467) scale(0.1 -0.1)">
       <defs>
        <path id="DejaVuSans-31" d="M 794 531
L 1825 531
L 1825 4091
L 703 3866
L 703 4441
L 1819 4666
L 2450 4666
L 2450 531
L 3481 531
L 3481 0
L 794 0
L 794 531
z
" transform="scale(0.015625)"/>
       </defs>
       <use xlink:href="#DejaVuSans-30"/>
       <use xlink:href="#DejaVuSans-2e" transform="translate(63.623047 0)"/>
       <use xlink:href="#DejaVuSans-30" transform="translate(95.410156 0)"/>
       <use xlink:href="#DejaVuSans-31" transform="translate(159.033203 0)"/>
      </g>
     </g>
    </g>
    <g id="ytick_3">
     <g id="line2d_8">
      <path d="M 50.14375 132.600424
L 217.134937 132.600424
" clip-path="url(#pba08508372)" style="fill: none; stroke: #dddddd; stroke-width: 0.6; stroke-linecap: square"/>
     </g>
     <g id="line2d_9">
      <g>
       <use xlink:href="#ma9e37f7498" x="50.14375" y="132.600424" style="stroke: #000000; stroke-width: 0.8"/>
      </g>
     </g>
     <g id="text_6">
      <!-- 0.02 -->
      <g transform="translate(20.878125 136.399642) scale(0.1 -0.1)">
       <defs>
        <path id="DejaVuSans-32" d="M 1228 531
L 3431 531
L 3431 0
L 469 0
L 469 531
Q 828 903 1448 1529
Q 2069 2156 2228 2338
Q 2531 2678 2651 2914
Q 2772 3150 2772 3378
Q 2772 3750 2511 3984
Q 2250 4219 1831 4219
Q 1534 4219 1204 4116
Q 875 4013 500 3803
L 500 4441
Q 881 4594 1212 4672
Q 1544 4750 1819 4750
Q 2544 4750 2975 4387
Q 3406 4025 3406 3419
Q 3406 3131 3298 2873
Q 3191 2616 2906 2266
Q 2828 2175 2409 1742
Q 1991 1309 1228 531
z
" transform="scale(0.015625)"/>
       </defs>
       <use xlink:href="#DejaVuSans-30"/>
       <use xlink:href="#DejaVuSans-2e" transform="translate(63.623047 0)"/>
       <use xlink:href="#DejaVuSans-30" transform="translate(95.410156 0)"/>
       <use xlink:href="#DejaVuSans-32" transform="translate(159.033203 0)"/>
      </g>
     </g>
    </g>
    <g id="ytick_4">
     <g id="line2d_10">
      <path d="M 50.14375 101.439599
L 217.134937 101.439599
" clip-path="url(#pba08508372)" style="fill: none; stroke: #dddddd; stroke-width: 0.6; stroke-linecap: square"/>
     </g>
     <g id="line2d_11">
      <g>
       <use xlink:href="#ma9e37f7498" x="50.14375" y="101.439599" style="stroke: #000000; stroke-width: 0.8"/>
      </g>
     </g>
     <g id="text_7">
      <!-- 0.03 -->
      <g transform="translate(20.878125 105.238818) scale(0.1 -0.1)">
       <defs>
        <path id="DejaVuSans-33" d="M 2597 2516
Q 3050 2419 3304 2112
Q 3559 1806 3559 1356
Q 3559 666 3084 287
Q 2609 -91 1734 -91
Q 1441 -91 1130 -33
Q 819 25 488 141
L 488 750
Q 750 597 1062 519
Q 1375 441 1716 441
Q 2309 441 2620 675
Q 2931 909 2931 1356
Q 2931 1769 2642 2001
Q 2353 2234 1838 2234
L 1294 2234
L 1294 2753
L 1863 2753
Q 2328 2753 2575 2939
Q 2822 3125 2822 3475
Q 2822 3834 2567 4026
Q 2313 4219 1838 4219
Q 1578 4219 1281 4162
Q 984 4106 628 3988
L 628 4550
Q 988 4650 1302 4700
Q 1616 4750 1894 4750
Q 2613 4750 3031 4423
Q 3450 4097 3450 3541
Q 3450 3153 3228 2886
Q 3006 2619 2597 2516
z
" transform="scale(0.015625)"/>
       </defs>
       <use xlink:href="#DejaVuSans-30"/>
       <use xlink:href="#DejaVuSans-2e" transform="translate(63.623047 0)"/>
       <use xlink:href="#DejaVuSans-30" transform="translate(95.410156 0)"/>
       <use xlink:href="#DejaVuSans-33" transform="translate(159.033203 0)"/>
      </g>
     </g>
    </g>
    <g id="ytick_5">
     <g id="line2d_12">
      <path d="M 50.14375 70.278774
L 217.134937 70.278774
" clip-path="url(#pba08508372)" style="fill: none; stroke: #dddddd; stroke-width: 0.6; stroke-linecap: square"/>
     </g>
     <g id="line2d_13">
      <g>
       <use xlink:href="#ma9e37f7498" x="50.14375" y="70.278774" style="stroke: #000000; stroke-width: 0.8"/>
      </g>
     </g>
     <g id="text_8">
      <!-- 0.04 -->
      <g transform="translate(20.878125 74.077993) scale(0.1 -0.1)">
       <defs>
        <path id="DejaVuSans-34" d="M 2419 4116
L 825 1625
L 2419 1625
L 2419 4116
z
M 2253 4666
L 3047 4666
L 3047 1625
L 3713 1625
L 3713 1100
L 3047 1100
L 3047 0
L 2419 0
L 2419 1100
L 313 1100
L 313 1709
L 2253 4666
z
" transform="scale(0.015625)"/>
       </defs>
       <use xlink:href="#DejaVuSans-30"/>
       <use xlink:href="#DejaVuSans-2e" transform="translate(63.623047 0)"/>
       <use xlink:href="#DejaVuSans-30" transform="translate(95.410156 0)"/>
       <use xlink:href="#DejaVuSans-34" transform="translate(159.033203 0)"/>
      </g>
     </g>
    </g>
    <g id="ytick_6">
     <g id="line2d_14">
      <path d="M 50.14375 39.117949
L 217.134937 39.117949
" clip-path="url(#pba08508372)" style="fill: none; stroke: #dddddd; stroke-width: 0.6; stroke-linecap: square"/>
     </g>
     <g id="line2d_15">
      <g>
       <use xlink:href="#ma9e37f7498" x="50.14375" y="39.117949" style="stroke: #000000; stroke-width: 0.8"/>
      </g>
     </g>
     <g id="text_9">
      <!-- 0.05 -->
      <g transform="translate(20.878125 42.917168) scale(0.1 -0.1)">
       <defs>
        <path id="DejaVuSans-35" d="M 691 4666
L 3169 4666
L 3169 4134
L 1269 4134
L 1269 2991
Q 1406 3038 1543 3061
Q 1681 3084 1819 3084
Q 2600 3084 3056 2656
Q 3513 2228 3513 1497
Q 3513 744 3044 326
Q 2575 -91 1722 -91
Q 1428 -91 1123 -41
Q 819 9 494 109
L 494 744
Q 775 591 1075 516
Q 1375 441 1709 441
Q 2250 441 2565 725
Q 2881 1009 2881 1497
Q 2881 1984 2565 2268
Q 2250 2553 1709 2553
Q 1456 2553 1204 2497
Q 953 2441 691 2322
L 691 4666
z
" transform="scale(0.015625)"/>
       </defs>
       <use xlink:href="#DejaVuSans-30"/>
       <use xlink:href="#DejaVuSans-2e" transform="translate(63.623047 0)"/>
       <use xlink:href="#DejaVuSans-30" transform="translate(95.410156 0)"/>
       <use xlink:href="#DejaVuSans-35" transform="translate(159.033203 0)"/>
      </g>
     </g>
    </g>
    <g id="text_10">
     <!-- gap RMSE -->
     <g transform="translate(14.798438 141.970657) rotate(-90) scale(0.1 -0.1)">
      <defs>
       <path id="DejaVuSans-67" d="M 2906 1791
Q 2906 2416 2648 2759
Q 2391 3103 1925 3103
Q 1463 3103 1205 2759
Q 947 2416 947 1791
Q 947 1169 1205 825
Q 1463 481 1925 481
Q 2391 481 2648 825
Q 2906 1169 2906 1791
z
M 3481 434
Q 3481 -459 3084 -895
Q 2688 -1331 1869 -1331
Q 1566 -1331 1297 -1286
Q 1028 -1241 775 -1147
L 775 -588
Q 1028 -725 1275 -790
Q 1522 -856 1778 -856
Q 2344 -856 2625 -561
Q 2906 -266 2906 331
L 2906 616
Q 2728 306 2450 153
Q 2172 0 1784 0
Q 1141 0 747 490
Q 353 981 353 1791
Q 353 2603 747 3093
Q 1141 3584 1784 3584
Q 2172 3584 2450 3431
Q 2728 3278 2906 2969
L 2906 3500
L 3481 3500
L 3481 434
z
" transform="scale(0.015625)"/>
       <path id="DejaVuSans-61" d="M 2194 1759
Q 1497 1759 1228 1600
Q 959 1441 959 1056
Q 959 750 1161 570
Q 1363 391 1709 391
Q 2188 391 2477 730
Q 2766 1069 2766 1631
L 2766 1759
L 2194 1759
z
M 3341 1997
L 3341 0
L 2766 0
L 2766 531
Q 2569 213 2275 61
Q 1981 -91 1556 -91
Q 1019 -91 701 211
Q 384 513 384 1019
Q 384 1609 779 1909
Q 1175 2209 1959 2209
L 2766 2209
L 2766 2266
Q 2766 2663 2505 2880
Q 2244 3097 1772 3097
Q 1472 3097 1187 3025
Q 903 2953 641 2809
L 641 3341
Q 956 3463 1253 3523
Q 1550 3584 1831 3584
Q 2591 3584 2966 3190
Q 3341 2797 3341 1997
z
" transform="scale(0.015625)"/>
       <path id="DejaVuSans-52" d="M 2841 2188
Q 3044 2119 3236 1894
Q 3428 1669 3622 1275
L 4263 0
L 3584 0
L 2988 1197
Q 2756 1666 2539 1819
Q 2322 1972 1947 1972
L 1259 1972
L 1259 0
L 628 0
L 628 4666
L 2053 4666
Q 2853 4666 3247 4331
Q 3641 3997 3641 3322
Q 3641 2881 3436 2590
Q 3231 2300 2841 2188
z
M 1259 4147
L 1259 2491
L 2053 2491
Q 2509 2491 2742 2702
Q 2975 2913 2975 3322
Q 2975 3731 2742 3939
Q 2509 4147 2053 4147
L 1259 4147
z
" transform="scale(0.015625)"/>
       <path id="DejaVuSans-4d" d="M 628 4666
L 1569 4666
L 2759 1491
L 3956 4666
L 4897 4666
L 4897 0
L 4281 0
L 4281 4097
L 3078 897
L 2444 897
L 1241 4097
L 1241 0
L 628 0
L 628 4666
z
" transform="scale(0.015625)"/>
       <path id="DejaVuSans-53" d="M 3425 4513
L 3425 3897
Q 3066 4069 2747 4153
Q 2428 4238 2131 4238
Q 1616 4238 1336 4038
Q 1056 3838 1056 3469
Q 1056 3159 1242 3001
Q 1428 2844 1947 2747
L 2328 2669
Q 3034 2534 3370 2195
Q 3706 1856 3706 1288
Q 3706 609 3251 259
Q 2797 -91 1919 -91
Q 1588 -91 1214 -16
Q 841 59 441 206
L 441 856
Q 825 641 1194 531
Q 1563 422 1919 422
Q 2459 422 2753 634
Q 3047 847 3047 1241
Q 3047 1584 2836 1778
Q 2625 1972 2144 2069
L 1759 2144
Q 1053 2284 737 2584
Q 422 2884 422 3419
Q 422 4038 858 4394
Q 1294 4750 2059 4750
Q 2388 4750 2728 4690
Q 3069 4631 3425 4513
z
" transform="scale(0.015625)"/>
       <path id="DejaVuSans-45" d="M 628 4666
L 3578 4666
L 3578 4134
L 1259 4134
L 1259 2753
L 3481 2753
L 3481 2222
L 1259 2222
L 1259 531
L 3634 531
L 3634 0
L 628 0
L 628 4666
z
" transform="scale(0.015625)"/>
      </defs>
      <use xlink:href="#DejaVuSans-67"/>
      <use xlink:href="#DejaVuSans-61" transform="translate(63.476562 0)"/>
      <use xlink:href="#DejaVuSans-70" transform="translate(124.755859 0)"/>
      <use xlink:href="#DejaVuSans-20" transform="translate(188.232422 0)"/>
      <use xlink:href="#DejaVuSans-52" transform="translate(220.019531 0)"/>
      <use xlink:href="#DejaVuSans-4d" transform="translate(289.501953 0)"/>
      <use xlink:href="#DejaVuSans-53" transform="translate(375.78125 0)"/>
      <use xlink:href="#DejaVuSans-45" transform="translate(439.257812 0)"/>
     </g>
    </g>
   </g>
   <g id="patch_3">
    <path d="M 57.734258 194.922073
L 67.78052 194.922073
L 67.78052 77.11758
L 57.734258 77.11758
z
" clip-path="url(#pba08508372)" style="fill: #6c757d"/>
   </g>
   <g id="patch_4">
    <path d="M 113.546821 194.922073
L 123.593082 194.922073
L 123.593082 46.208065
L 113.546821 46.208065
z
" clip-path="url(#pba08508372)" style="fill: #6c757d"/>
   </g>
   <g id="patch_5">
    <path d="M 169.359383 194.922073
L 179.405644 194.922073
L 179.405644 60.656121
L 169.359383 60.656121
z
" clip-path="url(#pba08508372)" style="fill: #6c757d"/>
   </g>
   <g id="patch_6">
    <path d="M 67.78052 194.922073
L 77.826781 194.922073
L 77.826781 136.910992
L 67.78052 136.910992
z
" clip-path="url(#pba08508372)" style="fill: #8d99ae"/>
   </g>
   <g id="patch_7">
    <path d="M 123.593082 194.922073
L 133.639343 194.922073
L 133.639343 105.933011
L 123.593082 105.933011
z
" clip-path="url(#pba08508372)" style="fill: #8d99ae"/>
   </g>
   <g id="patch_8">
    <path d="M 179.405644 194.922073
L 189.451906 194.922073
L 189.451906 80.292344
L 179.405644 80.292344
z
" clip-path="url(#pba08508372)" style="fill: #8d99ae"/>
   </g>
   <g id="patch_9">
    <path d="M 77.826781 194.922073
L 87.873042 194.922073
L 87.873042 130.716177
L 77.826781 130.716177
z
" clip-path="url(#pba08508372)" style="fill: #2a9d8f"/>
   </g>
   <g id="patch_10">
    <path d="M 133.639343 194.922073
L 143.685605 194.922073
L 143.685605 71.618203
L 133.639343 71.618203
z
" clip-path="url(#pba08508372)" style="fill: #2a9d8f"/>
   </g>
   <g id="patch_11">
    <path d="M 189.451906 194.922073
L 199.498167 194.922073
L 199.498167 75.927465
L 189.451906 75.927465
z
" clip-path="url(#pba08508372)" style="fill: #2a9d8f"/>
   </g>
   <g id="patch_12">
    <path d="M 87.873042 194.922073
L 97.919303 194.922073
L 97.919303 158.91004
L 87.873042 158.91004
z
" clip-path="url(#pba08508372)" style="fill: #e76f51"/>
   </g>
   <g id="patch_13">
    <path d="M 143.685605 194.922073
L 153.731866 194.922073
L 153.731866 151.152774
L 143.685605 151.152774
z
" clip-path="url(#pba08508372)" style="fill: #e76f51"/>
   </g>
   <g id="patch_14">
    <path d="M 199.498167 194.922073
L 209.544428 194.922073
L 209.544428 107.16723
L 199.498167 107.16723
z
" clip-path="url(#pba08508372)" style="fill: #e76f51"/>
   </g>
   <g id="patch_15">
    <path d="M 50.14375 194.922073
L 50.14375 38.772365
" style="fill: none; stroke: #000000; stroke-width: 0.8; stroke-linejoin: miter; stroke-linecap: square"/>
   </g>
   <g id="patch_16">
    <path d="M 50.14375 194.922073
L 217.134937 194.922073
" style="fill: none; stroke: #000000; stroke-width: 0.8; stroke-linejoin: miter; stroke-linecap: square"/>
   </g>
   <g id="text_11">
    <!-- (a) gap accuracy -->
    <g transform="translate(83.100593 32.772365) scale(0.12 -0.12)">
     <defs>
      <path id="DejaVuSans-28" d="M 1984 4856
Q 1566 4138 1362 3434
Q 1159 2731 1159 2009
Q 1159 1288 1364 580
Q 1569 -128 1984 -844
L 1484 -844
Q 1016 -109 783 600
Q 550 1309 550 2009
Q 550 2706 781 3412
Q 1013 4119 1484 4856
L 1984 4856
z
" transform="scale(0.015625)"/>
      <path id="DejaVuSans-29" d="M 513 4856
L 1013 4856
Q 1481 4119 1714 3412
Q 1947 2706 1947 2009
Q 1947 1309 1714 600
Q 1481 -109 1013 -844
L 513 -844
Q 928 -128 1133 580
Q 1338 1288 1338 2009
Q 1338 2731 1133 3434
Q 928 4138 513 4856
z
" transform="scale(0.015625)"/>
      <path id="DejaVuSans-75" d="M 544 1381
L 544 3500
L 1119 3500
L 1119 1403
Q 1119 906 1312 657
Q 1506 409 1894 409
Q 2359 409 2629 706
Q 2900 1003 2900 1516
L 2900 3500
L 3475 3500
L 3475 0
L 2900 0
L 2900 538
Q 2691 219 2414 64
Q 2138 -91 1772 -91
Q 1169 -91 856 284
Q 544 659 544 1381
z
M 1991 3584
L 1991 3584
z
" transform="scale(0.015625)"/>
      <path id="DejaVuSans-79" d="M 2059 -325
Q 1816 -950 1584 -1140
Q 1353 -1331 966 -1331
L 506 -1331
L 506 -850
L 844 -850
Q 1081 -850 1212 -737
Q 1344 -625 1503 -206
L 1606 56
L 191 3500
L 800 3500
L 1894 763
L 2988 3500
L 3597 3500
L 2059 -325
z
" transform="scale(0.015625)"/>
     </defs>
     <use xlink:href="#DejaVuSans-28"/>
     <use xlink:href="#DejaVuSans-61" transform="translate(39.013672 0)"/>
     <use xlink:href="#DejaVuSans-29" transform="translate(100.292969 0)"/>
     <use xlink:href="#DejaVuSans-20" transform="translate(139.306641 0)"/>
     <use xlink:href="#DejaVuSans-67" transform="translate(171.09375 0)"/>
     <use xlink:href="#DejaVuSans-61" transform="translate(234.570312 0)"/>
     <use xlink:href="#DejaVuSans-70" transform="translate(295.849609 0)"/>
     <use xlink:href="#DejaVuSans-20" transform="translate(359.326172 0)"/>
     <use xlink:href="#DejaVuSans-61" transform="translate(391.113281 0)"/>
     <use xlink:href="#DejaVuSans-63" transform="translate(452.392578 0)"/>
     <use xlink:href="#DejaVuSans-63" transform="translate(507.373047 0)"/>
     <use xlink:href="#DejaVuSans-75" transform="translate(562.353516 0)"/>
     <use xlink:href="#DejaVuSans-72" transform="translate(625.732422 0)"/>
     <use xlink:href="#DejaVuSans-61" transform="translate(666.845703 0)"/>
     <use xlink:href="#DejaVuSans-63" transform="translate(728.125 0)"/>
     <use xlink:href="#DejaVuSans-79" transform="translate(783.105469 0)"/>
    </g>
   </g>
  </g>
  <g id="axes_2">
   <g id="patch_17">
    <path d="M 256.538542 194.922073
L 423.529728 194.922073
L 423.529728 38.772365
L 256.538542 38.772365
z
" style="fill: #ffffff"/>
   </g>
   <g id="matplotlib.axis_3">
    <g id="xtick_4">
     <g id="line2d_16">
      <g>
       <use xlink:href="#ma5465170c4" x="284.221573" y="194.922073" style="stroke: #000000; stroke-width: 0.8"/>
      </g>
     </g>
     <g id="text_12">
      <!-- ellipsoid -->
      <g transform="translate(244.309196 221.908122) rotate(-18) scale(0.1 -0.1)">
       <use xlink:href="#DejaVuSans-65"/>
       <use xlink:href="#DejaVuSans-6c" transform="translate(61.523438 0)"/>
       <use xlink:href="#DejaVuSans-6c" transform="translate(89.306641 0)"/>
       <use xlink:href="#DejaVuSans-69" transform="translate(117.089844 0)"/>
       <use xlink:href="#DejaVuSans-70" transform="translate(144.873047 0)"/>
       <use xlink:href="#DejaVuSans-73" transform="translate(208.349609 0)"/>
       <use xlink:href="#DejaVuSans-6f" transform="translate(260.449219 0)"/>
       <use xlink:href="#DejaVuSans-69" transform="translate(321.630859 0)"/>
       <use xlink:href="#DejaVuSans-64" transform="translate(349.414062 0)"/>
      </g>
     </g>
    </g>
    <g id="xtick_5">
     <g id="line2d_17">
      <g>
       <use xlink:href="#ma5465170c4" x="340.034135" y="194.922073" style="stroke: #000000; stroke-width: 0.8"/>
      </g>
     </g>
     <g id="text_13">
      <!-- hex prism -->
      <g transform="translate(292.219073 224.47586) rotate(-18) scale(0.1 -0.1)">
       <use xlink:href="#DejaVuSans-68"/>
       <use xlink:href="#DejaVuSans-65" transform="translate(63.378906 0)"/>
       <use xlink:href="#DejaVuSans-78" transform="translate(123.152344 0)"/>
       <use xlink:href="#DejaVuSans-20" transform="translate(182.332031 0)"/>
       <use xlink:href="#DejaVuSans-70" transform="translate(214.119141 0)"/>
       <use xlink:href="#DejaVuSans-72" transform="translate(277.595703 0)"/>
       <use xlink:href="#DejaVuSans-69" transform="translate(318.708984 0)"/>
       <use xlink:href="#DejaVuSans-73" transform="translate(346.492188 0)"/>
       <use xlink:href="#DejaVuSans-6d" transform="translate(398.591797 0)"/>
      </g>
     </g>
    </g>
    <g id="xtick_6">
     <g id="line2d_18">
      <g>
       <use xlink:href="#ma5465170c4" x="395.846697" y="194.922073" style="stroke: #000000; stroke-width: 0.8"/>
      </g>
     </g>
     <g id="text_14">
      <!-- cone -->
      <g transform="translate(372.276146 216.59834) rotate(-18) scale(0.1 -0.1)">
       <use xlink:href="#DejaVuSans-63"/>
       <use xlink:href="#DejaVuSans-6f" transform="translate(54.980469 0)"/>
       <use xlink:href="#DejaVuSans-6e" transform="translate(116.162109 0)"/>
       <use xlink:href="#DejaVuSans-65" transform="translate(179.541016 0)"/>
      </g>
     </g>
    </g>
   </g>
   <g id="matplotlib.axis_4">
    <g id="ytick_7">
     <g id="line2d_19">
      <path d="M 256.538542 194.922073
L 423.529728 194.922073
" clip-path="url(#p9ee60560fd)" style="fill: none; stroke: #dddddd; stroke-width: 0.6; stroke-linecap: square"/>
     </g>
     <g id="line2d_20">
      <g>
       <use xlink:href="#ma9e37f7498" x="256.538542" y="194.922073" style="stroke: #000000; stroke-width: 0.8"/>
      </g>
     </g>
     <g id="text_15">
      <!-- 0 -->
      <g transform="translate(243.176042 198.721292) scale(0.1 -0.1)">
       <use xlink:href="#DejaVuSans-30"/>
      </g>
     </g>
    </g>
    <g id="ytick_8">
     <g id="line2d_21">
      <path d="M 256.538542 152.194428
L 423.529728 152.194428
" clip-path="url(#p9ee60560fd)" style="fill: none; stroke: #dddddd; stroke-width: 0.6; stroke-linecap: square"/>
     </g>
     <g id="line2d_22">
      <g>
       <use xlink:href="#ma9e37f7498" x="256.538542" y="152.194428" style="stroke: #000000; stroke-width: 0.8"/>
      </g>
     </g>
     <g id="text_16">
      <!-- 10 -->
      <g transform="translate(236.813542 155.993647) scale(0.1 -0.1)">
       <use xlink:href="#DejaVuSans-31"/>
       <use xlink:href="#DejaVuSans-30" transform="translate(63.623047 0)"/>
      </g>
     </g>
    </g>
    <g id="ytick_9">
     <g id="line2d_23">
      <path d="M 256.538542 109.466783
L 423.529728 109.466783
" clip-path="url(#p9ee60560fd)" style="fill: none; stroke: #dddddd; stroke-width: 0.6; stroke-linecap: square"/>
     </g>
     <g id="line2d_24">
      <g>
       <use xlink:href="#ma9e37f7498" x="256.538542" y="109.466783" style="stroke: #000000; stroke-width: 0.8"/>
      </g>
     </g>
     <g id="text_17">
      <!-- 20 -->
      <g transform="translate(236.813542 113.266002) scale(0.1 -0.1)">
       <use xlink:href="#DejaVuSans-32"/>
       <use xlink:href="#DejaVuSans-30" transform="translate(63.623047 0)"/>
      </g>
     </g>
    </g>
    <g id="ytick_10">
     <g id="line2d_25">
      <path d="M 256.538542 66.739138
L 423.529728 66.739138
" clip-path="url(#p9ee60560fd)" style="fill: none; stroke: #dddddd; stroke-width: 0.6; stroke-linecap: square"/>
     </g>
     <g id="line2d_26">
      <g>
       <use xlink:href="#ma9e37f7498" x="256.538542" y="66.739138" style="stroke: #000000; stroke-width: 0.8"/>
      </g>
     </g>
     <g id="text_18">
      <!-- 30 -->
      <g transform="translate(236.813542 70.538356) scale(0.1 -0.1)">
       <use xlink:href="#DejaVuSans-33"/>
       <use xlink:href="#DejaVuSans-30" transform="translate(63.623047 0)"/>
      </g>
     </g>
    </g>
    <g id="text_19">
     <!-- mean normal error (deg) -->
     <g transform="translate(230.733854 178.742532) rotate(-90) scale(0.1 -0.1)">
      <use xlink:href="#DejaVuSans-6d"/>
      <use xlink:href="#DejaVuSans-65" transform="translate(97.412109 0)"/>
      <use xlink:href="#DejaVuSans-61" transform="translate(158.935547 0)"/>
      <use xlink:href="#DejaVuSans-6e" transform="translate(220.214844 0)"/>
      <use xlink:href="#DejaVuSans-20" transform="translate(283.59375 0)"/>
      <use xlink:href="#DejaVuSans-6e" transform="translate(315.380859 0)"/>
      <use xlink:href="#DejaVuSans-6f" transform="translate(378.759766 0)"/>
      <use xlink:href="#DejaVuSans-72" transform="translate(439.941406 0)"/>
      <use xlink:href="#DejaVuSans-6d" transform="translate(479.304688 0)"/>
      <use xlink:href="#DejaVuSans-61" transform="translate(576.716797 0)"/>
      <use xlink:href="#DejaVuSans-6c" transform="translate(637.996094 0)"/>
      <use xlink:href="#DejaVuSans-20" transform="translate(665.779297 0)"/>
      <use xlink:href="#DejaVuSans-65" transform="translate(697.566406 0)"/>
      <use xlink:href="#DejaVuSans-72" transform="translate(759.089844 0)"/>
      <use xlink:href="#DejaVuSans-72" transform="translate(798.453125 0)"/>
      <use xlink:href="#DejaVuSans-6f" transform="translate(837.316406 0)"/>
      <use xlink:href="#DejaVuSans-72" transform="translate(898.498047 0)"/>
      <use xlink:href="#DejaVuSans-20" transform="translate(939.611328 0)"/>
      <use xlink:href="#DejaVuSans-28" transform="translate(971.398438 0)"/>
      <use xlink:href="#DejaVuSans-64" transform="translate(1010.412109 0)"/>
      <use xlink:href="#DejaVuSans-65" transform="translate(1073.888672 0)"/>
      <use xlink:href="#DejaVuSans-67" transform="translate(1135.412109 0)"/>
      <use xlink:href="#DejaVuSans-29" transform="translate(1198.888672 0)"/>
     </g>
    </g>
   </g>
   <g id="patch_18">
    <path d="M 264.12905 194.922073
L 274.175311 194.922073
L 274.175311 149.300262
L 264.12905 149.300262
z
" clip-path="url(#p9ee60560fd)" style="fill: #6c757d"/>
   </g>
   <g id="patch_19">
    <path d="M 319.941613 194.922073
L 329.987874 194.922073
L 329.987874 106.17291
L 319.941613 106.17291
z
" clip-path="url(#p9ee60560fd)" style="fill: #6c757d"/>
   </g>
   <g id="patch_20">
    <path d="M 375.754175 194.922073
L 385.800436 194.922073
L 385.800436 46.208065
L 375.754175 46.208065
z
" clip-path="url(#p9ee60560fd)" style="fill: #6c757d"/>
   </g>
   <g id="patch_21">
    <path d="M 274.175311 194.922073
L 284.221573 194.922073
L 284.221573 180.756574
L 274.175311 180.756574
z
" clip-path="url(#p9ee60560fd)" style="fill: #8d99ae"/>
   </g>
   <g id="patch_22">
    <path d="M 329.987874 194.922073
L 340.034135 194.922073
L 340.034135 114.71545
L 329.987874 114.71545
z
" clip-path="url(#p9ee60560fd)" style="fill: #8d99ae"/>
   </g>
   <g id="patch_23">
    <path d="M 385.800436 194.922073
L 395.846697 194.922073
L 395.846697 87.034377
L 385.800436 87.034377
z
" clip-path="url(#p9ee60560fd)" style="fill: #8d99ae"/>
   </g>
   <g id="patch_24">
    <path d="M 284.221573 194.922073
L 294.267834 194.922073
L 294.267834 178.869941
L 284.221573 178.869941
z
" clip-path="url(#p9ee60560fd)" style="fill: #2a9d8f"/>
   </g>
   <g id="patch_25">
    <path d="M 340.034135 194.922073
L 350.080396 194.922073
L 350.080396 133.65754
L 340.034135 133.65754
z
" clip-path="url(#p9ee60560fd)" style="fill: #2a9d8f"/>
   </g>
   <g id="patch_26">
    <path d="M 395.846697 194.922073
L 405.892959 194.922073
L 405.892959 105.041545
L 395.846697 105.041545
z
" clip-path="url(#p9ee60560fd)" style="fill: #2a9d8f"/>
   </g>
   <g id="patch_27">
    <path d="M 294.267834 194.922073
L 304.314095 194.922073
L 304.314095 188.798784
L 294.267834 188.798784
z
" clip-path="url(#p9ee60560fd)" style="fill: #e76f51"/>
   </g>
   <g id="patch_28">
    <path d="M 350.080396 194.922073
L 360.126657 194.922073
L 360.126657 180.417437
L 350.080396 180.417437
z
" clip-path="url(#p9ee60560fd)" style="fill: #e76f51"/>
   </g>
   <g id="patch_29">
    <path d="M 405.892959 194.922073
L 415.93922 194.922073
L 415.93922 157.080209
L 405.892959 157.080209
z
" clip-path="url(#p9ee60560fd)" style="fill: #e76f51"/>
   </g>
   <g id="patch_30">
    <path d="M 256.538542 194.922073
L 256.538542 38.772365
" style="fill: none; stroke: #000000; stroke-width: 0.8; stroke-linejoin: miter; stroke-linecap: square"/>
   </g>
   <g id="patch_31">
    <path d="M 256.538542 194.922073
L 423.529728 194.922073
" style="fill: none; stroke: #000000; stroke-width: 0.8; stroke-linejoin: miter; stroke-linecap: square"/>
   </g>
   <g id="text_20">
    <!-- (b) normal accuracy -->
    <g transform="translate(279.63476 32.772365) scale(0.12 -0.12)">
     <defs>
      <path id="DejaVuSans-62" d="M 3116 1747
Q 3116 2381 2855 2742
Q 2594 3103 2138 3103
Q 1681 3103 1420 2742
Q 1159 2381 1159 1747
Q 1159 1113 1420 752
Q 1681 391 2138 391
Q 2594 391 2855 752
Q 3116 1113 3116 1747
z
M 1159 2969
Q 1341 3281 1617 3432
Q 1894 3584 2278 3584
Q 2916 3584 3314 3078
Q 3713 2572 3713 1747
Q 3713 922 3314 415
Q 2916 -91 2278 -91
Q 1894 -91 1617 61
Q 1341 213 1159 525
L 1159 0
L 581 0
L 581 4863
L 1159 4863
L 1159 2969
z
" transform="scale(0.015625)"/>
     </defs>
     <use xlink:href="#DejaVuSans-28"/>
     <use xlink:href="#DejaVuSans-62" transform="translate(39.013672 0)"/>
     <use xlink:href="#DejaVuSans-29" transform="translate(102.490234 0)"/>
     <use xlink:href="#DejaVuSans-20" transform="translate(141.503906 0)"/>
     <use xlink:href="#DejaVuSans-6e" transform="translate(173.291016 0)"/>
     <use xlink:href="#DejaVuSans-6f" transform="translate(236.669922 0)"/>
     <use xlink:href="#DejaVuSans-72" transform="translate(297.851562 0)"/>
     <use xlink:href="#DejaVuSans-6d" transform="translate(337.214844 0)"/>
     <use xlink:href="#DejaVuSans-61" transform="translate(434.626953 0)"/>
     <use xlink:href="#DejaVuSans-6c" transform="translate(495.90625 0)"/>
     <use xlink:href="#DejaVuSans-20" transform="translate(523.689453 0)"/>
     <use xlink:href="#DejaVuSans-61" transform="translate(555.476562 0)"/>
     <use xlink:href="#DejaVuSans-63" transform="translate(616.755859 0)"/>
     <use xlink:href="#DejaVuSans-63" transform="translate(671.736328 0)"/>
     <use xlink:href="#DejaVuSans-75" transform="translate(726.716797 0)"/>
     <use xlink:href="#DejaVuSans-72" transform="translate(790.095703 0)"/>
     <use xlink:href="#DejaVuSans-61" transform="translate(831.208984 0)"/>
     <use xlink:href="#DejaVuSans-63" transform="translate(892.488281 0)"/>
     <use xlink:href="#DejaVuSans-79" transform="translate(947.46875 0)"/>
    </g>
   </g>
  </g>
  <g id="axes_3">
   <g id="patch_32">
    <path d="M 467.808333 194.922073
L 634.79952 194.922073
L 634.79952 38.772365
L 467.808333 38.772365
z
" style="fill: #ffffff"/>
   </g>
   <g id="matplotlib.axis_5">
    <g id="xtick_7">
     <g id="line2d_27">
      <g>
       <use xlink:href="#ma5465170c4" x="491.536143" y="194.922073" style="stroke: #000000; stroke-width: 0.8"/>
      </g>
     </g>
     <g id="text_21">
      <!-- ellipsoid -->
      <g transform="translate(451.623767 221.908122) rotate(-18) scale(0.1 -0.1)">
       <use xlink:href="#DejaVuSans-65"/>
       <use xlink:href="#DejaVuSans-6c" transform="translate(61.523438 0)"/>
       <use xlink:href="#DejaVuSans-6c" transform="translate(89.306641 0)"/>
       <use xlink:href="#DejaVuSans-69" transform="translate(117.089844 0)"/>
       <use xlink:href="#DejaVuSans-70" transform="translate(144.873047 0)"/>
       <use xlink:href="#DejaVuSans-73" transform="translate(208.349609 0)"/>
       <use xlink:href="#DejaVuSans-6f" transform="translate(260.449219 0)"/>
       <use xlink:href="#DejaVuSans-69" transform="translate(321.630859 0)"/>
       <use xlink:href="#DejaVuSans-64" transform="translate(349.414062 0)"/>
      </g>
     </g>
    </g>
    <g id="xtick_8">
     <g id="line2d_28">
      <g>
       <use xlink:href="#ma5465170c4" x="551.303927" y="194.922073" style="stroke: #000000; stroke-width: 0.8"/>
      </g>
     </g>
     <g id="text_22">
      <!-- hex prism -->
      <g transform="translate(503.488865 224.47586) rotate(-18) scale(0.1 -0.1)">
       <use xlink:href="#DejaVuSans-68"/>
       <use xlink:href="#DejaVuSans-65" transform="translate(63.378906 0)"/>
       <use xlink:href="#DejaVuSans-78" transform="translate(123.152344 0)"/>
       <use xlink:href="#DejaVuSans-20" transform="translate(182.332031 0)"/>
       <use xlink:href="#DejaVuSans-70" transform="translate(214.119141 0)"/>
       <use xlink:href="#DejaVuSans-72" transform="translate(277.595703 0)"/>
       <use xlink:href="#DejaVuSans-69" transform="translate(318.708984 0)"/>
       <use xlink:href="#DejaVuSans-73" transform="translate(346.492188 0)"/>
       <use xlink:href="#DejaVuSans-6d" transform="translate(398.591797 0)"/>
      </g>
     </g>
    </g>
    <g id="xtick_9">
     <g id="line2d_29">
      <g>
       <use xlink:href="#ma5465170c4" x="611.07171" y="194.922073" style="stroke: #000000; stroke-width: 0.8"/>
      </g>
     </g>
     <g id="text_23">
      <!-- cone -->
      <g transform="translate(587.501159 216.59834) rotate(-18) scale(0.1 -0.1)">
       <use xlink:href="#DejaVuSans-63"/>
       <use xlink:href="#DejaVuSans-6f" transform="translate(54.980469 0)"/>
       <use xlink:href="#DejaVuSans-6e" transform="translate(116.162109 0)"/>
       <use xlink:href="#DejaVuSans-65" transform="translate(179.541016 0)"/>
      </g>
     </g>
    </g>
   </g>
   <g id="matplotlib.axis_6">
    <g id="ytick_11">
     <g id="line2d_30">
      <path d="M 467.808333 186.802297
L 634.79952 186.802297
" clip-path="url(#p80f2ea34be)" style="fill: none; stroke: #dddddd; stroke-width: 0.6; stroke-linecap: square"/>
     </g>
     <g id="line2d_31">
      <g>
       <use xlink:href="#ma9e37f7498" x="467.808333" y="186.802297" style="stroke: #000000; stroke-width: 0.8"/>
      </g>
     </g>
     <g id="text_24">
      <!-- $\mathdefault{10^{2}}$ -->
      <g transform="translate(443.208333 190.601516) scale(0.1 -0.1)">
       <use xlink:href="#DejaVuSans-31" transform="translate(0 0.765625)"/>
       <use xlink:href="#DejaVuSans-30" transform="translate(63.623047 0.765625)"/>
       <use xlink:href="#DejaVuSans-32" transform="translate(128.203125 39.046875) scale(0.7)"/>
      </g>
     </g>
    </g>
    <g id="ytick_12">
     <g id="line2d_32">
      <defs>
       <path id="m3252b66ee6" d="M 0 0
L -2 0
" style="stroke: #000000; stroke-width: 0.6"/>
      </defs>
      <g>
       <use xlink:href="#m3252b66ee6" x="467.808333" y="193.856305" style="stroke: #000000; stroke-width: 0.6"/>
      </g>
     </g>
    </g>
    <g id="ytick_13">
     <g id="line2d_33">
      <g>
       <use xlink:href="#m3252b66ee6" x="467.808333" y="140.395298" style="stroke: #000000; stroke-width: 0.6"/>
      </g>
     </g>
    </g>
    <g id="ytick_14">
     <g id="line2d_34">
      <g>
       <use xlink:href="#m3252b66ee6" x="467.808333" y="113.248944" style="stroke: #000000; stroke-width: 0.6"/>
      </g>
     </g>
    </g>
    <g id="ytick_15">
     <g id="line2d_35">
      <g>
       <use xlink:href="#m3252b66ee6" x="467.808333" y="93.988299" style="stroke: #000000; stroke-width: 0.6"/>
      </g>
     </g>
    </g>
    <g id="ytick_16">
     <g id="line2d_36">
      <g>
       <use xlink:href="#m3252b66ee6" x="467.808333" y="79.048582" style="stroke: #000000; stroke-width: 0.6"/>
      </g>
     </g>
    </g>
    <g id="ytick_17">
     <g id="line2d_37">
      <g>
       <use xlink:href="#m3252b66ee6" x="467.808333" y="66.841945" style="stroke: #000000; stroke-width: 0.6"/>
      </g>
     </g>
    </g>
    <g id="ytick_18">
     <g id="line2d_38">
      <g>
       <use xlink:href="#m3252b66ee6" x="467.808333" y="56.52138" style="stroke: #000000; stroke-width: 0.6"/>
      </g>
     </g>
    </g>
    <g id="ytick_19">
     <g id="line2d_39">
      <g>
       <use xlink:href="#m3252b66ee6" x="467.808333" y="47.5813" style="stroke: #000000; stroke-width: 0.6"/>
      </g>
     </g>
    </g>
    <g id="ytick_20">
     <g id="line2d_40">
      <g>
       <use xlink:href="#m3252b66ee6" x="467.808333" y="39.69559" style="stroke: #000000; stroke-width: 0.6"/>
      </g>
     </g>
    </g>
    <g id="text_25">
     <!-- projection/query time -->
     <g transform="translate(437.128646 170.819875) rotate(-90) scale(0.1 -0.1)">
      <defs>
       <path id="DejaVuSans-6a" d="M 603 3500
L 1178 3500
L 1178 -63
Q 1178 -731 923 -1031
Q 669 -1331 103 -1331
L -116 -1331
L -116 -844
L 38 -844
Q 366 -844 484 -692
Q 603 -541 603 -63
L 603 3500
z
M 603 4863
L 1178 4863
L 1178 4134
L 603 4134
L 603 4863
z
" transform="scale(0.015625)"/>
       <path id="DejaVuSans-74" d="M 1172 4494
L 1172 3500
L 2356 3500
L 2356 3053
L 1172 3053
L 1172 1153
Q 1172 725 1289 603
Q 1406 481 1766 481
L 2356 481
L 2356 0
L 1766 0
Q 1100 0 847 248
Q 594 497 594 1153
L 594 3053
L 172 3053
L 172 3500
L 594 3500
L 594 4494
L 1172 4494
z
" transform="scale(0.015625)"/>
       <path id="DejaVuSans-2f" d="M 1625 4666
L 2156 4666
L 531 -594
L 0 -594
L 1625 4666
z
" transform="scale(0.015625)"/>
       <path id="DejaVuSans-71" d="M 947 1747
Q 947 1113 1208 752
Q 1469 391 1925 391
Q 2381 391 2643 752
Q 2906 1113 2906 1747
Q 2906 2381 2643 2742
Q 2381 3103 1925 3103
Q 1469 3103 1208 2742
Q 947 2381 947 1747
z
M 2906 525
Q 2725 213 2448 61
Q 2172 -91 1784 -91
Q 1150 -91 751 415
Q 353 922 353 1747
Q 353 2572 751 3078
Q 1150 3584 1784 3584
Q 2172 3584 2448 3432
Q 2725 3281 2906 2969
L 2906 3500
L 3481 3500
L 3481 -1331
L 2906 -1331
L 2906 525
z
" transform="scale(0.015625)"/>
      </defs>
      <use xlink:href="#DejaVuSans-70"/>
      <use xlink:href="#DejaVuSans-72" transform="translate(63.476562 0)"/>
      <use xlink:href="#DejaVuSans-6f" transform="translate(102.339844 0)"/>
      <use xlink:href="#DejaVuSans-6a" transform="translate(163.521484 0)"/>
      <use xlink:href="#DejaVuSans-65" transform="translate(191.304688 0)"/>
      <use xlink:href="#DejaVuSans-63" transform="translate(252.828125 0)"/>
      <use xlink:href="#DejaVuSans-74" transform="translate(307.808594 0)"/>
      <use xlink:href="#DejaVuSans-69" transform="translate(347.017578 0)"/>
      <use xlink:href="#DejaVuSans-6f" transform="translate(374.800781 0)"/>
      <use xlink:href="#DejaVuSans-6e" transform="translate(435.982422 0)"/>
      <use xlink:href="#DejaVuSans-2f" transform="translate(499.361328 0)"/>
      <use xlink:href="#DejaVuSans-71" transform="translate(533.052734 0)"/>
      <use xlink:href="#DejaVuSans-75" transform="translate(596.529297 0)"/>
      <use xlink:href="#DejaVuSans-65" transform="translate(659.908203 0)"/>
      <use xlink:href="#DejaVuSans-72" transform="translate(721.431641 0)"/>
      <use xlink:href="#DejaVuSans-79" transform="translate(762.544922 0)"/>
      <use xlink:href="#DejaVuSans-20" transform="translate(821.724609 0)"/>
      <use xlink:href="#DejaVuSans-74" transform="translate(853.511719 0)"/>
      <use xlink:href="#DejaVuSans-69" transform="translate(892.720703 0)"/>
      <use xlink:href="#DejaVuSans-6d" transform="translate(920.503906 0)"/>
      <use xlink:href="#DejaVuSans-65" transform="translate(1017.916016 0)"/>
     </g>
    </g>
   </g>
   <g id="patch_33">
    <path d="M 475.398842 154655.837857
L 486.157043 154655.837857
L 486.157043 63.861187
L 475.398842 63.861187
z
" clip-path="url(#p80f2ea34be)" style="fill: #6c757d"/>
   </g>
   <g id="patch_34">
    <path d="M 535.166625 154655.837857
L 545.924826 154655.837857
L 545.924826 60.042849
L 535.166625 60.042849
z
" clip-path="url(#p80f2ea34be)" style="fill: #6c757d"/>
   </g>
   <g id="patch_35">
    <path d="M 594.934409 154655.837857
L 605.69261 154655.837857
L 605.69261 54.563199
L 594.934409 54.563199
z
" clip-path="url(#p80f2ea34be)" style="fill: #6c757d"/>
   </g>
   <g id="patch_36">
    <path d="M 486.157043 154655.837857
L 496.915244 154655.837857
L 496.915244 178.259334
L 486.157043 178.259334
z
" clip-path="url(#p80f2ea34be)" style="fill: #8d99ae"/>
   </g>
   <g id="patch_37">
    <path d="M 545.924826 154655.837857
L 556.683027 154655.837857
L 556.683027 187.824359
L 545.924826 187.824359
z
" clip-path="url(#p80f2ea34be)" style="fill: #8d99ae"/>
   </g>
   <g id="patch_38">
    <path d="M 605.69261 154655.837857
L 616.450811 154655.837857
L 616.450811 184.427884
L 605.69261 184.427884
z
" clip-path="url(#p80f2ea34be)" style="fill: #8d99ae"/>
   </g>
   <g id="patch_39">
    <path d="M 496.915244 154655.837857
L 507.673445 154655.837857
L 507.673445 49.105813
L 496.915244 49.105813
z
" clip-path="url(#p80f2ea34be)" style="fill: #e76f51"/>
   </g>
   <g id="patch_40">
    <path d="M 556.683027 154655.837857
L 567.441228 154655.837857
L 567.441228 48.084676
L 556.683027 48.084676
z
" clip-path="url(#p80f2ea34be)" style="fill: #e76f51"/>
   </g>
   <g id="patch_41">
    <path d="M 616.450811 154655.837857
L 627.209012 154655.837857
L 627.209012 45.870079
L 616.450811 45.870079
z
" clip-path="url(#p80f2ea34be)" style="fill: #e76f51"/>
   </g>
   <g id="patch_42">
    <path d="M 467.808333 194.922073
L 467.808333 38.772365
" style="fill: none; stroke: #000000; stroke-width: 0.8; stroke-linejoin: miter; stroke-linecap: square"/>
   </g>
   <g id="patch_43">
    <path d="M 467.808333 194.922073
L 634.79952 194.922073
" style="fill: none; stroke: #000000; stroke-width: 0.8; stroke-linejoin: miter; stroke-linecap: square"/>
   </g>
   <g id="text_26">
    <!-- (c) runtime speedup -->
    <g transform="translate(490.143302 32.772365) scale(0.12 -0.12)">
     <use xlink:href="#DejaVuSans-28"/>
     <use xlink:href="#DejaVuSans-63" transform="translate(39.013672 0)"/>
     <use xlink:href="#DejaVuSans-29" transform="translate(93.994141 0)"/>
     <use xlink:href="#DejaVuSans-20" transform="translate(133.007812 0)"/>
     <use xlink:href="#DejaVuSans-72" transform="translate(164.794922 0)"/>
     <use xlink:href="#DejaVuSans-75" transform="translate(205.908203 0)"/>
     <use xlink:href="#DejaVuSans-6e" transform="translate(269.287109 0)"/>
     <use xlink:href="#DejaVuSans-74" transform="translate(332.666016 0)"/>
     <use xlink:href="#DejaVuSans-69" transform="translate(371.875 0)"/>
     <use xlink:href="#DejaVuSans-6d" transform="translate(399.658203 0)"/>
     <use xlink:href="#DejaVuSans-65" transform="translate(497.070312 0)"/>
     <use xlink:href="#DejaVuSans-20" transform="translate(558.59375 0)"/>
     <use xlink:href="#DejaVuSans-73" transform="translate(590.380859 0)"/>
     <use xlink:href="#DejaVuSans-70" transform="translate(642.480469 0)"/>
     <use xlink:href="#DejaVuSans-65" transform="translate(705.957031 0)"/>
     <use xlink:href="#DejaVuSans-65" transform="translate(767.480469 0)"/>
     <use xlink:href="#DejaVuSans-64" transform="translate(829.003906 0)"/>
     <use xlink:href="#DejaVuSans-75" transform="translate(892.480469 0)"/>
     <use xlink:href="#DejaVuSans-70" transform="translate(955.859375 0)"/>
    </g>
   </g>
  </g>
  <g id="legend_1">
   <g id="patch_44">
    <path d="M 176.744447 14.738984
L 189.744447 14.738984
L 189.744447 10.188984
L 176.744447 10.188984
z
" style="fill: #6c757d"/>
   </g>
   <g id="text_27">
    <!-- trilinear SDF -->
    <g transform="translate(194.944447 14.738984) scale(0.065 -0.065)">
     <defs>
      <path id="DejaVuSans-44" d="M 1259 4147
L 1259 519
L 2022 519
Q 2988 519 3436 956
Q 3884 1394 3884 2338
Q 3884 3275 3436 3711
Q 2988 4147 2022 4147
L 1259 4147
z
M 628 4666
L 1925 4666
Q 3281 4666 3915 4102
Q 4550 3538 4550 2338
Q 4550 1131 3912 565
Q 3275 0 1925 0
L 628 0
L 628 4666
z
" transform="scale(0.015625)"/>
      <path id="DejaVuSans-46" d="M 628 4666
L 3309 4666
L 3309 4134
L 1259 4134
L 1259 2759
L 3109 2759
L 3109 2228
L 1259 2228
L 1259 0
L 628 0
L 628 4666
z
" transform="scale(0.015625)"/>
     </defs>
     <use xlink:href="#DejaVuSans-74"/>
     <use xlink:href="#DejaVuSans-72" transform="translate(39.208984 0)"/>
     <use xlink:href="#DejaVuSans-69" transform="translate(80.322266 0)"/>
     <use xlink:href="#DejaVuSans-6c" transform="translate(108.105469 0)"/>
     <use xlink:href="#DejaVuSans-69" transform="translate(135.888672 0)"/>
     <use xlink:href="#DejaVuSans-6e" transform="translate(163.671875 0)"/>
     <use xlink:href="#DejaVuSans-65" transform="translate(227.050781 0)"/>
     <use xlink:href="#DejaVuSans-61" transform="translate(288.574219 0)"/>
     <use xlink:href="#DejaVuSans-72" transform="translate(349.853516 0)"/>
     <use xlink:href="#DejaVuSans-20" transform="translate(390.966797 0)"/>
     <use xlink:href="#DejaVuSans-53" transform="translate(422.753906 0)"/>
     <use xlink:href="#DejaVuSans-44" transform="translate(486.230469 0)"/>
     <use xlink:href="#DejaVuSans-46" transform="translate(563.232422 0)"/>
    </g>
   </g>
   <g id="patch_45">
    <path d="M 248.292182 14.738984
L 261.292182 14.738984
L 261.292182 10.188984
L 248.292182 10.188984
z
" style="fill: #8d99ae"/>
   </g>
   <g id="text_28">
    <!-- tricubic SDF -->
    <g transform="translate(266.492182 14.738984) scale(0.065 -0.065)">
     <use xlink:href="#DejaVuSans-74"/>
     <use xlink:href="#DejaVuSans-72" transform="translate(39.208984 0)"/>
     <use xlink:href="#DejaVuSans-69" transform="translate(80.322266 0)"/>
     <use xlink:href="#DejaVuSans-63" transform="translate(108.105469 0)"/>
     <use xlink:href="#DejaVuSans-75" transform="translate(163.085938 0)"/>
     <use xlink:href="#DejaVuSans-62" transform="translate(226.464844 0)"/>
     <use xlink:href="#DejaVuSans-69" transform="translate(289.941406 0)"/>
     <use xlink:href="#DejaVuSans-63" transform="translate(317.724609 0)"/>
     <use xlink:href="#DejaVuSans-20" transform="translate(372.705078 0)"/>
     <use xlink:href="#DejaVuSans-53" transform="translate(404.492188 0)"/>
     <use xlink:href="#DejaVuSans-44" transform="translate(467.96875 0)"/>
     <use xlink:href="#DejaVuSans-46" transform="translate(544.970703 0)"/>
    </g>
   </g>
   <g id="patch_46">
    <path d="M 318.653666 14.738984
L 331.653666 14.738984
L 331.653666 10.188984
L 318.653666 10.188984
z
" style="fill: #2a9d8f"/>
   </g>
   <g id="text_29">
    <!-- uniform atlas -->
    <g transform="translate(336.853666 14.738984) scale(0.065 -0.065)">
     <defs>
      <path id="DejaVuSans-66" d="M 2375 4863
L 2375 4384
L 1825 4384
Q 1516 4384 1395 4259
Q 1275 4134 1275 3809
L 1275 3500
L 2222 3500
L 2222 3053
L 1275 3053
L 1275 0
L 697 0
L 697 3053
L 147 3053
L 147 3500
L 697 3500
L 697 3744
Q 697 4328 969 4595
Q 1241 4863 1831 4863
L 2375 4863
z
" transform="scale(0.015625)"/>
     </defs>
     <use xlink:href="#DejaVuSans-75"/>
     <use xlink:href="#DejaVuSans-6e" transform="translate(63.378906 0)"/>
     <use xlink:href="#DejaVuSans-69" transform="translate(126.757812 0)"/>
     <use xlink:href="#DejaVuSans-66" transform="translate(154.541016 0)"/>
     <use xlink:href="#DejaVuSans-6f" transform="translate(189.746094 0)"/>
     <use xlink:href="#DejaVuSans-72" transform="translate(250.927734 0)"/>
     <use xlink:href="#DejaVuSans-6d" transform="translate(290.291016 0)"/>
     <use xlink:href="#DejaVuSans-20" transform="translate(387.703125 0)"/>
     <use xlink:href="#DejaVuSans-61" transform="translate(419.490234 0)"/>
     <use xlink:href="#DejaVuSans-74" transform="translate(480.769531 0)"/>
     <use xlink:href="#DejaVuSans-6c" transform="translate(519.978516 0)"/>
     <use xlink:href="#DejaVuSans-61" transform="translate(547.761719 0)"/>
     <use xlink:href="#DejaVuSans-73" transform="translate(609.041016 0)"/>
    </g>
   </g>
   <g id="patch_47">
    <path d="M 392.825776 14.738984
L 405.825776 14.738984
L 405.825776 10.188984
L 392.825776 10.188984
z
" style="fill: #e76f51"/>
   </g>
   <g id="text_30">
    <!-- feature-adaptive -->
    <g transform="translate(411.025776 14.738984) scale(0.065 -0.065)">
     <defs>
      <path id="DejaVuSans-2d" d="M 313 2009
L 1997 2009
L 1997 1497
L 313 1497
L 313 2009
z
" transform="scale(0.015625)"/>
      <path id="DejaVuSans-76" d="M 191 3500
L 800 3500
L 1894 563
L 2988 3500
L 3597 3500
L 2284 0
L 1503 0
L 191 3500
z
" transform="scale(0.015625)"/>
     </defs>
     <use xlink:href="#DejaVuSans-66"/>
     <use xlink:href="#DejaVuSans-65" transform="translate(35.205078 0)"/>
     <use xlink:href="#DejaVuSans-61" transform="translate(96.728516 0)"/>
     <use xlink:href="#DejaVuSans-74" transform="translate(158.007812 0)"/>
     <use xlink:href="#DejaVuSans-75" transform="translate(197.216797 0)"/>
     <use xlink:href="#DejaVuSans-72" transform="translate(260.595703 0)"/>
     <use xlink:href="#DejaVuSans-65" transform="translate(299.458984 0)"/>
     <use xlink:href="#DejaVuSans-2d" transform="translate(360.982422 0)"/>
     <use xlink:href="#DejaVuSans-61" transform="translate(397.066406 0)"/>
     <use xlink:href="#DejaVuSans-64" transform="translate(458.345703 0)"/>
     <use xlink:href="#DejaVuSans-61" transform="translate(521.822266 0)"/>
     <use xlink:href="#DejaVuSans-70" transform="translate(583.101562 0)"/>
     <use xlink:href="#DejaVuSans-74" transform="translate(646.578125 0)"/>
     <use xlink:href="#DejaVuSans-69" transform="translate(685.787109 0)"/>
     <use xlink:href="#DejaVuSans-76" transform="translate(713.570312 0)"/>
     <use xlink:href="#DejaVuSans-65" transform="translate(772.75 0)"/>
    </g>
   </g>
  </g>
 </g>
 <defs>
  <clipPath id="pba08508372">
   <rect x="50.14375" y="38.772365" width="166.991187" height="156.149708"/>
  </clipPath>
  <clipPath id="p9ee60560fd">
   <rect x="256.538542" y="38.772365" width="166.991187" height="156.149708"/>
  </clipPath>
  <clipPath id="p80f2ea34be">
   <rect x="467.808333" y="38.772365" width="166.991187" height="156.149708"/>
  </clipPath>
 </defs>
</svg>
